<?xml version="1.0" encoding="UTF-8" standalone="no"?>
<svg
   xmlns:dc="http://purl.org/dc/elements/1.1/"
   xmlns:cc="http://creativecommons.org/ns#"
   xmlns:rdf="http://www.w3.org/1999/02/22-rdf-syntax-ns#"
   xmlns:svg="http://www.w3.org/2000/svg"
   xmlns="http://www.w3.org/2000/svg"
   xmlns:sodipodi="http://sodipodi.sourceforge.net/DTD/sodipodi-0.dtd"
   xmlns:inkscape="http://www.inkscape.org/namespaces/inkscape"
   inkscape:version="1.0beta1 (32d4812, 2019-09-19)"
   sodipodi:docname="kibana.svg"
   id="svg3766"
   version="1.1"
   preserveAspectRatio="xMidYMid meet"
   height="70"
   width="180">
  <defs
     id="defs3770">
    <clipPath
       clipPathUnits="userSpaceOnUse"
       id="clipPath160">
      <path
         d="M 0,800 H 800 V 0 H 0 Z"
         id="path158"
         inkscape:connector-curvature="0" />
    </clipPath>
  </defs>
  <sodipodi:namedview
     inkscape:document-rotation="0"
     inkscape:current-layer="svg3766"
     inkscape:window-maximized="0"
     inkscape:window-y="91"
     inkscape:window-x="668"
     inkscape:cy="178.29607"
     inkscape:cx="312.39938"
     inkscape:zoom="1.2507426"
     inkscape:pagecheckerboard="true"
     showgrid="false"
     id="namedview3768"
     inkscape:window-height="1035"
     inkscape:window-width="1600"
     inkscape:pageshadow="2"
     inkscape:pageopacity="0"
     guidetolerance="10"
     gridtolerance="10"
     objecttolerance="10"
     borderopacity="1"
     bordercolor="#666666"
     pagecolor="#ffffff" />
  <metadata
     id="metadata4">Created by potrace 1.11, written by Peter Selinger 2001-2013image/svg+xml<rdf:RDF>
  <cc:Work
     rdf:about="">
    <dc:format>image/svg+xml</dc:format>
    <dc:type
       rdf:resource="http://purl.org/dc/dcmitype/StillImage" />
    <dc:title />
  </cc:Work>
</rdf:RDF>
</metadata>
  <g
     transform="translate(0,-209)"
     id="g3759">
    <title
       id="title3756">background</title>
    <rect
       style="fill:none"
       x="-1"
       y="-1"
       width="600"
       height="279"
       id="canvas_background" />
  </g>
  <g
     id="g154"
     transform="matrix(0.54612565,0,0,-0.5409606,-77.277061,185.1058)">
    <g
       id="g156"
       clip-path="url(#clipPath160)">
      <g
         id="g162"
         transform="translate(264.763,296.0284)">
        <path
           d="m 0,0 v 12.816 c 0,14.343 -11.628,25.971 -25.971,25.971 v 0 c -2.447,0 -4.805,-0.362 -7.05,-0.994 -4.824,3.547 -10.761,5.669 -17.208,5.669 h -10e-4 c -16.077,0 -29.11,-13.033 -29.11,-29.111 V 0 c -20.08,-1.46 -35.974,-18.253 -35.974,-38.699 0,-21.402 17.412,-38.813 38.814,-38.813 h 73.661 c 21.402,0 38.813,17.411 38.813,38.813 C 35.974,-18.253 20.08,-1.46 0,0"
           style="fill:#3e2723;fill-opacity:1;fill-rule:nonzero;stroke:none"
           id="path164"
           inkscape:connector-curvature="0" />
      </g>
      <g
         id="g166"
         transform="translate(255.422,287.6441)">
        <path
           d="m 0,0 h -7.395 c -2.164,0 -3.919,-1.755 -3.919,-3.919 V -56.71 c 0,-2.164 1.755,-3.919 3.919,-3.919 H 0 c 2.164,0 3.919,1.755 3.919,3.919 V -3.919 C 3.919,-1.755 2.164,0 0,0"
           style="fill:#fdd835;fill-opacity:1;fill-rule:nonzero;stroke:none"
           id="path168"
           inkscape:connector-curvature="0" />
      </g>
      <g
         id="g170"
         transform="translate(229.3903,287.6441)">
        <path
           d="m 0,0 h -7.395 c -2.164,0 -3.919,-1.755 -3.919,-3.919 V -56.71 c 0,-2.164 1.755,-3.919 3.919,-3.919 H 0 c 2.164,0 3.919,1.755 3.919,3.919 V -3.919 C 3.919,-1.755 2.164,0 0,0"
           style="fill:#fdd835;fill-opacity:1;fill-rule:nonzero;stroke:none"
           id="path172"
           inkscape:connector-curvature="0" />
      </g>
      <g
         id="g174"
         transform="translate(273.359,285.4034)">
        <path
           d="m 0,0 c -1.537,0.627 -3.219,-0.532 -3.219,-2.192 v -51.763 c 0,-1.661 1.682,-2.819 3.219,-2.192 11.072,4.513 18.879,15.378 18.879,28.073 v 0 C 18.879,-15.379 11.072,-4.513 0,0"
           style="fill:#fdd835;fill-opacity:1;fill-rule:nonzero;stroke:none"
           id="path176"
           inkscape:connector-curvature="0" />
      </g>
      <g
         id="g178"
         transform="translate(176.9302,278.8614)">
        <path
           d="m 0,0 c -3.599,0 -6.516,-2.917 -6.516,-6.516 0,-3.599 2.917,-6.516 6.516,-6.516 3.599,0 6.516,2.917 6.516,6.516 C 6.516,-2.917 3.599,0 0,0"
           style="fill:#fafafa;fill-opacity:1;fill-rule:nonzero;stroke:none"
           id="path180"
           inkscape:connector-curvature="0" />
      </g>
      <g
         id="g182"
         transform="translate(214.5336,334.8154)">
        <path
           d="m 0,0 v 0 c -13.398,0 -24.259,-10.861 -24.259,-24.258 v -14.414 h 48.517 v 14.414 C 24.258,-10.861 13.398,0 0,0"
           style="fill:#fafafa;fill-opacity:1;fill-rule:nonzero;stroke:none"
           id="path184"
           inkscape:connector-curvature="0" />
      </g>
      <g
         id="g186"
         transform="translate(238.7922,330.6449)">
        <path
           d="m 0,0 v 0 c -1.074,0 -2.121,-0.104 -3.153,-0.255 4.949,-5.218 8.005,-12.251 8.005,-20.01 v -14.236 h 16.79 v 12.859 C 21.642,-9.69 11.953,0 0,0"
           style="fill:#e0e0e0;fill-opacity:1;fill-rule:nonzero;stroke:none"
           id="path188"
           inkscape:connector-curvature="0" />
      </g>
    </g>
  </g>
  <text
     transform="scale(1.0651105,0.93886973)"
     style="font-variant:normal;font-weight:900;font-stretch:normal;font-size:42.6833px;font-family:'Roboto Black';-inkscape-font-specification:Roboto-Black;writing-mode:lr-tb;fill:#fdd835;fill-opacity:1;fill-rule:nonzero;stroke:none;stroke-width:0.795053"
     id="text280"
     x="82.369316"
     y="38.760906"><tspan
       style="stroke-width:0.795053"
       x="82.369316 109.772 134.05884"
       y="38.760906"
       sodipodi:role="line"
       id="tspan278">BEE</tspan></text>
  <text
     transform="scale(0.99962193,1.0003782)"
     id="text284"
     style="font-variant:normal;font-weight:300;font-stretch:normal;font-size:37.8603px;font-family:'Roboto Light';-inkscape-font-specification:Roboto-Light;writing-mode:lr-tb;fill:#3e2723;fill-opacity:1;fill-rule:nonzero;stroke:none;stroke-width:0.705217"
     x="88.157455"
     y="65.68042"><tspan
       id="tspan282"
       sodipodi:role="line"
       y="65.68042"
       x="88.157455 114.92479 125.16605 148.52592"
       style="stroke-width:0.705217">HIVE</tspan></text>
</svg>
